<?xml version="1.0" encoding="UTF-8"?>
<!-- Generated by Pixelmator Pro 3.7.1 -->
<svg width="1024" height="1024" viewBox="0 0 1024 1024" xmlns="http://www.w3.org/2000/svg">
    <g id="Gruppe">
        <path id="Abgerundetes-Rechteck" fill="#42edfe" fill-rule="evenodd" stroke="none" d="M 166.194565 816.15625 C 79.129814 816.15625 8.549881 745.576294 8.549881 658.511536 C 8.549881 571.446777 79.129814 500.866821 166.194565 500.866821 L 856.68811 500.866821 C 943.752869 500.866821 1014.332825 571.446777 1014.332825 658.511536 C 1014.332825 745.576294 943.752869 816.15625 856.68811 816.15625 L 166.194565 816.15625 Z M 78.835594 658.511536 C 78.835594 610.264526 117.947548 571.152527 166.194565 571.152527 L 856.68811 571.152527 C 904.93512 571.152527 944.047119 610.264526 944.047119 658.511536 C 944.047119 706.758545 904.93512 745.870544 856.68811 745.870544 L 166.194565 745.870544 C 117.947548 745.870544 78.835594 706.758545 78.835594 658.511536 Z"/>
        <path id="Abgerundetes-Rechteck-Kopie-2" fill="none" stroke="none" d="M 8.549881 658.511536 C 8.549881 745.576294 79.129814 816.15625 166.19458 816.15625 L 856.68811 816.15625 C 943.75293 816.15625 1014.332825 745.576294 1014.332825 658.511536 C 1014.332825 571.446777 943.75293 500.866821 856.68811 500.866821 L 166.19458 500.866821 C 79.129814 500.866821 8.549881 571.446777 8.549881 658.511536 Z"/>
        <path id="Circle" fill="#42edfe" fill-rule="evenodd" stroke="none" d="M 323.839264 659.002625 C 323.839264 571.937866 253.259323 501.357971 166.194565 501.357971 C 79.129814 501.357971 8.549881 571.937866 8.549881 659.002625 C 8.549881 746.067383 79.129814 816.647339 166.194565 816.647339 C 253.259323 816.647339 323.839264 746.067383 323.839264 659.002625 Z"/>
        <path id="Circle-Kopie" fill="#42edfe" fill-rule="evenodd" stroke="none" d="M 1014.332825 659.002625 C 1014.332825 571.937866 943.752869 501.357971 856.68811 501.357971 C 769.623352 501.357971 699.043457 571.937866 699.043457 659.002625 C 699.043457 746.067383 769.623352 816.647339 856.68811 816.647339 C 943.752869 816.647339 1014.332825 746.067383 1014.332825 659.002625 Z"/>
        <path id="path1" fill="#42edfe" fill-rule="evenodd" stroke="none" d="M 50.784908 255.371399 L 50.784908 461.307739 C 84.70472 441.356567 124.2304 429.914307 166.428574 429.914307 L 857.571411 429.914307 C 898.901917 429.914307 937.66864 440.890869 971.115601 460.087891 L 971.115601 343.228577 L 734.571411 343.228577 C 715.162537 343.228577 699.428589 327.494568 699.428589 308.085693 C 699.428589 288.67688 715.162537 272.942871 734.571411 272.942871 L 971.115601 272.942871 L 971.115601 255.371399 C 971.115601 190.675171 918.668945 138.228516 853.972717 138.228516 L 167.927765 138.228516 C 103.231552 138.228516 50.784908 190.675171 50.784908 255.371399 Z"/>
    </g>
</svg>
