<?xml version="1.0" encoding="UTF-8"?>
<!-- Generated by Pixelmator Pro 3.7.1 -->
<svg width="1024" height="1024" viewBox="0 0 1024 1024" xmlns="http://www.w3.org/2000/svg">
    <g id="Gruppe">
        <g id="g1">
            <g id="g2">
                <path id="Circle" fill="#ffffff" fill-rule="evenodd" stroke="none" d="M 480.909088 644.272705 C 480.909088 628.833862 468.393402 616.318176 452.954559 616.318176 C 437.515686 616.318176 425 628.833862 425 644.272705 C 425 659.711609 437.515686 672.227295 452.954559 672.227295 C 468.393402 672.227295 480.909088 659.711609 480.909088 644.272705 Z"/>
                <path id="Rechteck-Kopie-2" fill="#ffffff" fill-rule="evenodd" stroke="none" d="M 425 784.045471 C 425 799.484314 437.515686 812 452.954559 812 C 468.393402 812 480.909088 799.484314 480.909088 784.045471 L 480.909088 713.227295 C 480.909088 697.788452 468.393402 685.272705 452.954559 685.272705 C 437.515686 685.272705 425 697.788452 425 713.227295 Z"/>
                <path id="Rechteck-Kopie" fill="#ffffff" fill-rule="evenodd" stroke="none" d="M 425 575.318176 C 425 590.75708 437.515686 603.272705 452.954559 603.272705 C 468.393402 603.272705 480.909088 590.75708 480.909088 575.318176 L 480.909088 377.772705 C 480.909088 362.333862 468.393402 349.818176 452.954559 349.818176 C 437.515686 349.818176 425 362.333862 425 377.772705 Z"/>
            </g>
            <g id="Gruppe-Kopie">
                <path id="path1" fill="#ffffff" fill-rule="evenodd" stroke="none" d="M 599 517.54541 C 599 532.984314 586.484314 545.5 571.045471 545.5 C 555.606567 545.5 543.090881 532.984314 543.090881 517.54541 C 543.090881 502.106567 555.606567 489.590881 571.045471 489.590881 C 586.484314 489.590881 599 502.106567 599 517.54541 Z"/>
                <path id="path2" fill="#ffffff" fill-rule="evenodd" stroke="none" d="M 543.090881 377.772705 C 543.090881 362.333862 555.606567 349.818176 571.045471 349.818176 C 586.484314 349.818176 599 362.333862 599 377.772705 L 599 448.590881 C 599 464.029785 586.484314 476.545471 571.045471 476.545471 C 555.606567 476.545471 543.090881 464.029785 543.090881 448.590881 Z"/>
                <path id="path3" fill="#ffffff" fill-rule="evenodd" stroke="none" d="M 543.090881 586.5 C 543.090881 571.061157 555.606567 558.54541 571.045471 558.54541 C 586.484314 558.54541 599 571.061157 599 586.5 L 599 784.045471 C 599 799.484314 586.484314 812 571.045471 812 C 555.606567 812 543.090881 799.484314 543.090881 784.045471 Z"/>
            </g>
        </g>
    </g>
</svg>
